<?xml version="1.0" encoding="UTF-8" ?>
<!DOCTYPE svg PUBLIC "-//W3C//DTD SVG 1.1//EN" "http://www.w3.org/Graphics/SVG/1.1/DTD/svg11.dtd">
<svg width="302pt" height="255pt" viewBox="0 0 302 255" version="1.1" xmlns="http://www.w3.org/2000/svg">
<g id="#7d421f7d">
<path fill="#7d421f" opacity="0.49" d=" M 147.44 4.99 C 150.11 4.96 152.79 4.94 155.46 4.91 C 155.65 14.70 155.53 24.49 155.52 34.29 C 152.84 34.28 150.16 34.28 147.49 34.29 C 147.39 24.52 147.48 14.76 147.44 4.99 Z" />
<path fill="#7d421f" opacity="0.49" d=" M 96.52 34.52 C 98.53 32.47 100.56 30.44 102.61 28.42 C 108.22 34.15 113.90 39.80 119.49 45.55 C 117.50 47.58 115.41 49.51 113.15 51.24 C 107.62 45.66 102.07 40.08 96.52 34.52 Z" />
<path fill="#7d421f" opacity="0.49" d=" M 113.80 76.93 C 116.83 59.67 133.43 45.69 151.02 46.15 C 159.71 45.91 168.40 48.83 175.27 54.13 C 155.98 70.23 136.70 86.34 117.41 102.43 C 113.28 94.66 112.26 85.52 113.80 76.93 Z" />
<path fill="#7d421f" opacity="0.49" d=" M 132.71 118.35 C 151.18 102.99 169.58 87.56 188.04 72.19 C 191.83 83.92 189.95 97.53 182.51 107.45 C 178.41 113.21 172.38 117.21 166.08 120.20 C 155.39 124.72 142.99 123.35 132.71 118.35 Z" />
<path fill="#7d421f" opacity="0.49" d=" M 72.02 80.42 C 81.78 80.50 91.53 80.40 101.28 80.47 C 101.28 83.15 101.28 85.84 101.29 88.52 C 91.52 88.59 81.75 88.52 71.99 88.56 C 71.93 85.85 71.94 83.13 72.02 80.42 Z" />
<path fill="#7d421f" opacity="0.49" d=" M 201.72 80.47 C 211.48 80.41 221.24 80.49 231.00 80.43 C 231.07 83.14 231.06 85.86 231.00 88.57 C 221.24 88.51 211.47 88.61 201.71 88.51 C 201.72 85.83 201.72 83.15 201.72 80.47 Z" />
<path fill="#7d421f" opacity="0.49" d=" M 184.53 122.53 C 186.53 120.44 188.56 118.37 190.73 116.46 C 196.22 122.24 201.93 127.80 207.48 133.52 C 205.45 135.52 203.45 137.53 201.47 139.57 C 195.75 133.95 190.20 128.18 184.53 122.53 Z" />
<path fill="#7d421f" opacity="0.49" d=" M 147.38 163.92 C 147.54 154.19 147.38 144.45 147.47 134.72 C 150.15 134.72 152.84 134.72 155.52 134.71 C 155.60 144.47 155.50 154.23 155.58 163.98 C 152.84 164.07 150.11 164.09 147.38 163.92 Z" />
</g>
<g id="#d7d7d7ff">
<path fill="#d7d7d7" opacity="1.00" d=" M 202.34 30.67 C 205.07 30.05 206.76 27.56 208.95 26.01 C 213.63 31.67 218.32 37.33 223.00 43.00 C 211.35 52.74 199.68 62.45 188.04 72.19 C 169.58 87.56 151.18 102.99 132.71 118.35 C 118.51 130.25 104.27 142.11 90.05 153.98 C 85.37 148.32 80.68 142.67 76.01 137.00 C 89.80 125.47 103.61 113.96 117.41 102.43 C 136.70 86.34 155.98 70.23 175.27 54.13 C 178.79 51.04 182.66 48.33 185.89 44.92 C 187.34 43.59 188.79 42.23 190.44 41.14 L 190.42 40.24 L 191.77 40.71 L 191.27 39.56 C 193.48 39.44 194.54 37.04 196.43 36.13 L 196.44 35.22 L 197.76 35.68 L 197.27 34.17 L 198.81 34.88 L 198.24 33.53 C 200.08 33.79 200.85 33.02 200.53 31.20 C 200.97 31.36 201.85 31.68 202.29 31.84 L 202.34 30.67 Z" />
</g>
</svg>
