<?xml version="1.0" encoding="UTF-8" ?>
<!DOCTYPE svg PUBLIC "-//W3C//DTD SVG 1.1//EN" "http://www.w3.org/Graphics/SVG/1.1/DTD/svg11.dtd">
<svg width="302pt" height="255pt" viewBox="0 0 302 255" version="1.1" xmlns="http://www.w3.org/2000/svg">
<g id="#505153ff">
<path fill="#505153" opacity="1.00" d=" M 76.60 31.62 C 89.08 20.36 106.33 14.74 123.05 16.36 C 141.02 17.61 158.09 27.62 167.80 42.83 C 178.69 36.01 192.73 34.62 204.71 39.29 C 216.68 43.74 226.07 54.80 227.55 67.62 C 241.25 69.77 254.60 77.13 261.94 89.17 C 268.82 99.91 269.87 114.07 264.79 125.74 C 257.40 142.52 239.13 153.09 221.03 152.87 C 172.69 153.26 124.34 152.97 75.99 153.03 C 60.82 153.46 45.32 147.12 35.73 135.19 C 27.81 125.58 24.93 112.04 28.21 100.05 C 32.33 84.84 45.43 73.21 60.43 69.15 C 59.97 55.03 66.31 41.16 76.60 31.62 M 104.18 18.35 C 111.16 28.86 114.56 41.97 111.76 54.44 C 107.62 74.73 88.49 90.38 67.93 91.26 C 60.70 92.14 53.69 89.95 46.77 88.21 C 51.61 94.08 57.54 99.15 64.40 102.50 C 76.62 108.58 91.44 109.27 104.15 104.28 C 115.45 99.91 125.06 91.15 130.14 80.12 C 135.83 68.03 135.52 53.36 129.51 41.46 C 124.28 30.93 114.79 23.10 104.18 18.35 M 188.05 85.94 C 181.92 88.36 178.41 94.68 177.82 101.02 C 175.47 102.21 172.98 103.31 171.12 105.24 C 167.42 108.85 165.97 114.86 168.40 119.57 C 171.13 125.36 177.76 128.20 183.92 128.04 C 198.62 128.06 213.33 128.06 228.04 128.04 C 232.80 128.11 237.89 126.84 241.13 123.12 C 245.65 118.74 246.10 110.84 241.94 106.08 C 239.50 103.07 235.71 101.80 232.20 100.51 C 230.95 97.46 229.52 94.14 226.37 92.62 C 222.22 89.92 216.96 90.55 212.65 92.51 C 207.23 84.99 196.49 81.82 188.05 85.94 Z" />
</g>
<g id="#f05e40ff">
<path fill="#f05e40" opacity="1.00" d=" M 104.18 18.35 C 114.79 23.10 124.28 30.93 129.51 41.46 C 135.52 53.36 135.83 68.03 130.14 80.12 C 125.06 91.15 115.45 99.91 104.15 104.28 C 91.44 109.27 76.62 108.58 64.40 102.50 C 57.54 99.15 51.61 94.08 46.77 88.21 C 53.69 89.95 60.70 92.14 67.93 91.26 C 88.49 90.38 107.62 74.73 111.76 54.44 C 114.56 41.97 111.16 28.86 104.18 18.35 Z" />
</g>
<g id="#aca6a6ff">
<path fill="#aca6a6" opacity="1.00" d=" M 188.05 85.94 C 196.49 81.82 207.23 84.99 212.65 92.51 C 216.96 90.55 222.22 89.92 226.37 92.62 C 229.52 94.14 230.95 97.46 232.20 100.51 C 235.71 101.80 239.50 103.07 241.94 106.08 C 246.10 110.84 245.65 118.74 241.13 123.12 C 237.89 126.84 232.80 128.11 228.04 128.04 C 213.33 128.06 198.62 128.06 183.92 128.04 C 177.76 128.20 171.13 125.36 168.40 119.57 C 165.97 114.86 167.42 108.85 171.12 105.24 C 172.98 103.31 175.47 102.21 177.82 101.02 C 178.41 94.68 181.92 88.36 188.05 85.94 Z" />
</g>
</svg>
